<?xml version="1.0" standalone="no"?>
<!DOCTYPE svg PUBLIC "-//W3C//DTD SVG 20010904//EN"
 "http://www.w3.org/TR/2001/REC-SVG-20010904/DTD/svg10.dtd">
<svg version="1.0" xmlns="http://www.w3.org/2000/svg"
 width="512.000000pt" height="512.000000pt" viewBox="0 0 512.000000 512.000000"
 preserveAspectRatio="xMidYMid meet">

<g transform="translate(0.000000,512.000000) scale(0.100000,-0.100000)"
fill="#000000" stroke="none">
<path d="M2393 5065 c-308 -56 -563 -252 -698 -537 -24 -52 -55 -134 -67 -184
-21 -83 -23 -110 -23 -394 0 -284 2 -311 23 -394 143 -562 723 -872 1265 -676
163 59 329 184 436 329 66 89 135 234 163 347 21 83 23 110 23 394 0 284 -2
311 -23 394 -125 494 -607 810 -1099 721z"/>
<path d="M1998 2683 c-17 -4 -18 -38 -18 -542 l0 -538 42 -19 c24 -10 69 -44
100 -76 259 -252 119 -686 -242 -750 -280 -49 -551 222 -502 502 24 135 124
277 230 324 l42 19 0 488 0 489 -27 -11 c-143 -54 -380 -229 -508 -375 -224
-257 -349 -553 -375 -894 -14 -168 -12 -1085 1 -1135 13 -47 52 -92 96 -111
48 -21 3397 -21 3446 0 42 17 83 66 97 114 13 47 13 960 0 1128 -27 346 -150
639 -376 898 -113 130 -297 272 -451 350 l-53 26 0 -632 0 -633 57 -30 c150
-78 275 -263 317 -468 12 -57 25 -89 50 -122 91 -119 54 -281 -80 -349 -120
-60 -275 4 -318 131 -29 84 -15 157 41 223 l34 39 -26 76 c-30 91 -59 138
-113 187 -134 121 -315 36 -382 -181 -26 -81 -25 -84 9 -132 85 -117 45 -277
-86 -343 -138 -69 -308 23 -329 177 -9 65 11 129 57 181 22 24 39 53 39 64 0
40 52 198 87 265 48 90 153 202 237 251 l66 39 0 682 0 683 -30 4 c-20 3 -56
-7 -107 -30 -140 -61 -248 -84 -428 -89 -217 -6 -313 13 -545 109 -19 8 -43
13 -52 11z"/>
<path d="M1725 1371 c-70 -31 -125 -113 -125 -186 0 -73 55 -155 125 -186 100
-46 217 1 266 106 76 163 -102 341 -266 266z"/>
</g>
</svg>
